<mxfile host="65bd71144e">
    <diagram name="Page-1" id="NfYlLdUj2IlSzyUvlhlQ">
        <mxGraphModel dx="587" dy="773" grid="1" gridSize="10" guides="1" tooltips="1" connect="1" arrows="1" fold="1" page="1" pageScale="1" pageWidth="850" pageHeight="1100" math="0" shadow="0">
            <root>
                <mxCell id="0"/>
                <mxCell id="1" parent="0"/>
                <mxCell id="MZ-Ur8Q-H968ZvkLKglN-2" value="Developers" style="sketch=0;outlineConnect=0;fontColor=#232F3E;gradientColor=none;fillColor=#232F3D;strokeColor=none;dashed=0;verticalLabelPosition=bottom;verticalAlign=top;align=center;html=1;fontSize=12;fontStyle=0;aspect=fixed;pointerEvents=1;shape=mxgraph.aws4.users;" parent="1" vertex="1">
                    <mxGeometry x="290" y="24" width="70" height="70" as="geometry"/>
                </mxCell>
                <mxCell id="MZ-Ur8Q-H968ZvkLKglN-5" value="AWS Cloud" style="points=[[0,0],[0.25,0],[0.5,0],[0.75,0],[1,0],[1,0.25],[1,0.5],[1,0.75],[1,1],[0.75,1],[0.5,1],[0.25,1],[0,1],[0,0.75],[0,0.5],[0,0.25]];outlineConnect=0;gradientColor=none;html=1;whiteSpace=wrap;fontSize=12;fontStyle=0;container=1;pointerEvents=0;collapsible=0;recursiveResize=0;shape=mxgraph.aws4.group;grIcon=mxgraph.aws4.group_aws_cloud_alt;strokeColor=#232F3E;fillColor=none;verticalAlign=top;align=left;spacingLeft=30;fontColor=#232F3E;dashed=0;" parent="1" vertex="1">
                    <mxGeometry x="105" y="130" width="685" height="760" as="geometry"/>
                </mxCell>
                <mxCell id="MZ-Ur8Q-H968ZvkLKglN-6" value="Region" style="points=[[0,0],[0.25,0],[0.5,0],[0.75,0],[1,0],[1,0.25],[1,0.5],[1,0.75],[1,1],[0.75,1],[0.5,1],[0.25,1],[0,1],[0,0.75],[0,0.5],[0,0.25]];outlineConnect=0;gradientColor=none;html=1;whiteSpace=wrap;fontSize=12;fontStyle=0;container=1;pointerEvents=0;collapsible=0;recursiveResize=0;shape=mxgraph.aws4.group;grIcon=mxgraph.aws4.group_region;strokeColor=#147EBA;fillColor=none;verticalAlign=top;align=left;spacingLeft=30;fontColor=#147EBA;dashed=1;" parent="MZ-Ur8Q-H968ZvkLKglN-5" vertex="1">
                    <mxGeometry x="10" y="20" width="660" height="710" as="geometry"/>
                </mxCell>
                <mxCell id="MZ-Ur8Q-H968ZvkLKglN-7" value="VPC" style="points=[[0,0],[0.25,0],[0.5,0],[0.75,0],[1,0],[1,0.25],[1,0.5],[1,0.75],[1,1],[0.75,1],[0.5,1],[0.25,1],[0,1],[0,0.75],[0,0.5],[0,0.25]];outlineConnect=0;gradientColor=none;html=1;whiteSpace=wrap;fontSize=12;fontStyle=0;container=1;pointerEvents=0;collapsible=0;recursiveResize=0;shape=mxgraph.aws4.group;grIcon=mxgraph.aws4.group_vpc;strokeColor=#248814;fillColor=none;verticalAlign=top;align=left;spacingLeft=30;fontColor=#AAB7B8;dashed=0;" parent="MZ-Ur8Q-H968ZvkLKglN-6" vertex="1">
                    <mxGeometry x="24" y="30" width="634.5" height="660" as="geometry"/>
                </mxCell>
                <mxCell id="MZ-Ur8Q-H968ZvkLKglN-8" value="Availability Zones" style="fillColor=none;strokeColor=#147EBA;dashed=1;verticalAlign=top;fontStyle=0;fontColor=#147EBA;movable=1;resizable=1;rotatable=1;deletable=1;editable=1;locked=0;connectable=1;" parent="MZ-Ur8Q-H968ZvkLKglN-7" vertex="1">
                    <mxGeometry x="10" y="30" width="590" height="610" as="geometry"/>
                </mxCell>
                <mxCell id="MZ-Ur8Q-H968ZvkLKglN-9" value="Public subnets" style="points=[[0,0],[0.25,0],[0.5,0],[0.75,0],[1,0],[1,0.25],[1,0.5],[1,0.75],[1,1],[0.75,1],[0.5,1],[0.25,1],[0,1],[0,0.75],[0,0.5],[0,0.25]];outlineConnect=0;gradientColor=none;html=1;whiteSpace=wrap;fontSize=12;fontStyle=0;container=1;pointerEvents=0;collapsible=0;recursiveResize=0;shape=mxgraph.aws4.group;grIcon=mxgraph.aws4.group_security_group;grStroke=0;strokeColor=#248814;fillColor=#E9F3E6;verticalAlign=top;align=left;spacingLeft=30;fontColor=#248814;dashed=0;" parent="MZ-Ur8Q-H968ZvkLKglN-7" vertex="1">
                    <mxGeometry x="100" y="150" width="470" height="130" as="geometry"/>
                </mxCell>
                <mxCell id="MZ-Ur8Q-H968ZvkLKglN-10" value="Private subnet" style="points=[[0,0],[0.25,0],[0.5,0],[0.75,0],[1,0],[1,0.25],[1,0.5],[1,0.75],[1,1],[0.75,1],[0.5,1],[0.25,1],[0,1],[0,0.75],[0,0.5],[0,0.25]];outlineConnect=0;gradientColor=none;html=1;whiteSpace=wrap;fontSize=12;fontStyle=0;container=1;pointerEvents=0;collapsible=0;recursiveResize=0;shape=mxgraph.aws4.group;grIcon=mxgraph.aws4.group_security_group;grStroke=0;strokeColor=#147EBA;fillColor=#E6F2F8;verticalAlign=top;align=left;spacingLeft=30;fontColor=#147EBA;dashed=0;" parent="MZ-Ur8Q-H968ZvkLKglN-7" vertex="1">
                    <mxGeometry x="100" y="300" width="470" height="260" as="geometry"/>
                </mxCell>
                <mxCell id="MZ-Ur8Q-H968ZvkLKglN-11" value="" style="group" parent="MZ-Ur8Q-H968ZvkLKglN-10" vertex="1" connectable="0">
                    <mxGeometry x="20" y="40" width="440" height="210" as="geometry"/>
                </mxCell>
                <mxCell id="MZ-Ur8Q-H968ZvkLKglN-12" value="" style="sketch=0;points=[[0,0,0],[0.25,0,0],[0.5,0,0],[0.75,0,0],[1,0,0],[0,1,0],[0.25,1,0],[0.5,1,0],[0.75,1,0],[1,1,0],[0,0.25,0],[0,0.5,0],[0,0.75,0],[1,0.25,0],[1,0.5,0],[1,0.75,0]];outlineConnect=0;fontColor=#232F3E;gradientColor=#F78E04;gradientDirection=north;fillColor=#D05C17;strokeColor=#ffffff;dashed=0;verticalLabelPosition=bottom;verticalAlign=top;align=center;html=1;fontSize=12;fontStyle=0;aspect=fixed;shape=mxgraph.aws4.resourceIcon;resIcon=mxgraph.aws4.eks_cloud;" parent="MZ-Ur8Q-H968ZvkLKglN-11" vertex="1">
                    <mxGeometry width="21.788579739981156" height="21.788579739981156" as="geometry"/>
                </mxCell>
                <mxCell id="MZ-Ur8Q-H968ZvkLKglN-13" value="EKS Cluster" style="fillColor=none;strokeColor=#5A6C86;dashed=1;verticalAlign=top;fontStyle=0;fontColor=#5A6C86;fontSize=9;" parent="MZ-Ur8Q-H968ZvkLKglN-11" vertex="1">
                    <mxGeometry width="430" height="210" as="geometry"/>
                </mxCell>
                <mxCell id="MZ-Ur8Q-H968ZvkLKglN-14" value="&lt;font style=&quot;&quot;&gt;&lt;font size=&quot;1&quot;&gt;Worker Node&lt;/font&gt;&lt;br&gt;App PODs&lt;br&gt;&lt;/font&gt;" style="points=[[0,0],[0.25,0],[0.5,0],[0.75,0],[1,0],[1,0.25],[1,0.5],[1,0.75],[1,1],[0.75,1],[0.5,1],[0.25,1],[0,1],[0,0.75],[0,0.5],[0,0.25]];outlineConnect=0;gradientColor=none;html=1;whiteSpace=wrap;fontSize=12;fontStyle=0;container=1;pointerEvents=0;collapsible=0;recursiveResize=0;shape=mxgraph.aws4.group;grIcon=mxgraph.aws4.group_ec2_instance_contents;strokeColor=#D86613;fillColor=none;verticalAlign=top;align=left;spacingLeft=30;fontColor=#D86613;dashed=0;" parent="MZ-Ur8Q-H968ZvkLKglN-11" vertex="1">
                    <mxGeometry x="165.61" y="109.7" width="104.39" height="40.3" as="geometry"/>
                </mxCell>
                <mxCell id="MZ-Ur8Q-H968ZvkLKglN-15" style="edgeStyle=orthogonalEdgeStyle;rounded=0;orthogonalLoop=1;jettySize=auto;html=1;" parent="MZ-Ur8Q-H968ZvkLKglN-11" source="MZ-Ur8Q-H968ZvkLKglN-16" target="MZ-Ur8Q-H968ZvkLKglN-14" edge="1">
                    <mxGeometry relative="1" as="geometry"/>
                </mxCell>
                <mxCell id="MZ-Ur8Q-H968ZvkLKglN-16" value="&lt;font style=&quot;&quot;&gt;&lt;font size=&quot;1&quot;&gt;Worker Node&lt;/font&gt;&lt;br&gt;&lt;font style=&quot;font-size: 9px;&quot;&gt;Web-Server PODs&lt;/font&gt;&lt;/font&gt;" style="points=[[0,0],[0.25,0],[0.5,0],[0.75,0],[1,0],[1,0.25],[1,0.5],[1,0.75],[1,1],[0.75,1],[0.5,1],[0.25,1],[0,1],[0,0.75],[0,0.5],[0,0.25]];outlineConnect=0;gradientColor=none;html=1;whiteSpace=wrap;fontSize=12;fontStyle=0;container=1;pointerEvents=0;collapsible=0;recursiveResize=0;shape=mxgraph.aws4.group;grIcon=mxgraph.aws4.group_ec2_instance_contents;strokeColor=#D86613;fillColor=none;verticalAlign=top;align=left;spacingLeft=30;fontColor=#D86613;dashed=0;" parent="MZ-Ur8Q-H968ZvkLKglN-11" vertex="1">
                    <mxGeometry x="290" y="108.92" width="130" height="41.08" as="geometry"/>
                </mxCell>
                <mxCell id="MZ-Ur8Q-H968ZvkLKglN-57" value="Cert-manager" style="rounded=1;whiteSpace=wrap;html=1;" parent="MZ-Ur8Q-H968ZvkLKglN-11" vertex="1">
                    <mxGeometry x="196.76094266277937" y="42.107894736842105" width="86.48629737609329" height="32.82631578947368" as="geometry"/>
                </mxCell>
                <mxCell id="MZ-Ur8Q-H968ZvkLKglN-72" style="edgeStyle=orthogonalEdgeStyle;rounded=0;comic=0;orthogonalLoop=1;jettySize=auto;html=1;strokeColor=default;startFill=1;endArrow=blockThin;endFill=1;" parent="MZ-Ur8Q-H968ZvkLKglN-11" source="MZ-Ur8Q-H968ZvkLKglN-59" target="MZ-Ur8Q-H968ZvkLKglN-16" edge="1">
                    <mxGeometry relative="1" as="geometry">
                        <Array as="points">
                            <mxPoint x="374" y="102.63157894736842"/>
                            <mxPoint x="374" y="102.63157894736842"/>
                        </Array>
                    </mxGeometry>
                </mxCell>
                <mxCell id="MZ-Ur8Q-H968ZvkLKglN-59" value="&lt;font style=&quot;&quot;&gt;&lt;font size=&quot;1&quot;&gt;Ingress Controller&lt;/font&gt;&lt;br&gt;&lt;/font&gt;" style="points=[[0,0],[0.25,0],[0.5,0],[0.75,0],[1,0],[1,0.25],[1,0.5],[1,0.75],[1,1],[0.75,1],[0.5,1],[0.25,1],[0,1],[0,0.75],[0,0.5],[0,0.25]];outlineConnect=0;gradientColor=none;html=1;whiteSpace=wrap;fontSize=12;fontStyle=0;container=1;pointerEvents=0;collapsible=0;recursiveResize=0;shape=mxgraph.aws4.group;grIcon=mxgraph.aws4.group_ec2_instance_contents;strokeColor=#D86613;fillColor=none;verticalAlign=top;align=left;spacingLeft=30;fontColor=#D86613;dashed=0;" parent="MZ-Ur8Q-H968ZvkLKglN-11" vertex="1">
                    <mxGeometry x="324.07" y="38.88" width="98.79" height="40.12" as="geometry"/>
                </mxCell>
                <mxCell id="MZ-Ur8Q-H968ZvkLKglN-18" value="&lt;font style=&quot;font-size: 10px&quot;&gt;IGW&lt;/font&gt;" style="sketch=0;outlineConnect=0;fontColor=#232F3E;gradientColor=none;fillColor=#4D27AA;strokeColor=none;dashed=0;verticalLabelPosition=bottom;verticalAlign=top;align=center;html=1;fontSize=12;fontStyle=0;aspect=fixed;pointerEvents=1;shape=mxgraph.aws4.internet_gateway;" parent="MZ-Ur8Q-H968ZvkLKglN-7" vertex="1">
                    <mxGeometry x="525.5" y="10" width="44.5" height="44.5" as="geometry"/>
                </mxCell>
                <mxCell id="MZ-Ur8Q-H968ZvkLKglN-19" style="rounded=0;orthogonalLoop=1;jettySize=auto;html=1;strokeColor=default;noJump=0;flowAnimation=0;comic=0;enumerate=0;orthogonal=0;endFill=1;startFill=1;shape=link;width=3.793103448275863;edgeStyle=orthogonalEdgeStyle;" parent="MZ-Ur8Q-H968ZvkLKglN-7" source="MZ-Ur8Q-H968ZvkLKglN-25" target="MZ-Ur8Q-H968ZvkLKglN-18" edge="1">
                    <mxGeometry relative="1" as="geometry"/>
                </mxCell>
                <mxCell id="MZ-Ur8Q-H968ZvkLKglN-30" style="edgeStyle=orthogonalEdgeStyle;rounded=0;orthogonalLoop=1;jettySize=auto;html=1;exitX=0.5;exitY=1;exitDx=0;exitDy=0;" parent="MZ-Ur8Q-H968ZvkLKglN-7" source="MZ-Ur8Q-H968ZvkLKglN-31" target="MZ-Ur8Q-H968ZvkLKglN-13" edge="1">
                    <mxGeometry relative="1" as="geometry">
                        <Array as="points">
                            <mxPoint x="271" y="250"/>
                        </Array>
                    </mxGeometry>
                </mxCell>
                <mxCell id="MZ-Ur8Q-H968ZvkLKglN-55" value="IAM Role" style="sketch=0;outlineConnect=0;fontColor=#232F3E;gradientColor=none;fillColor=#BF0816;strokeColor=none;dashed=0;verticalLabelPosition=bottom;verticalAlign=top;align=center;html=1;fontSize=12;fontStyle=0;aspect=fixed;pointerEvents=1;shape=mxgraph.aws4.role;" parent="MZ-Ur8Q-H968ZvkLKglN-7" vertex="1">
                    <mxGeometry x="21" y="60" width="78" height="44" as="geometry"/>
                </mxCell>
                <mxCell id="MZ-Ur8Q-H968ZvkLKglN-67" style="edgeStyle=orthogonalEdgeStyle;shape=link;rounded=1;comic=0;orthogonalLoop=1;jettySize=auto;html=1;entryX=0.936;entryY=0.004;entryDx=0;entryDy=0;entryPerimeter=0;strokeColor=default;startFill=1;endArrow=blockThin;endFill=1;" parent="MZ-Ur8Q-H968ZvkLKglN-7" source="MZ-Ur8Q-H968ZvkLKglN-25" target="MZ-Ur8Q-H968ZvkLKglN-13" edge="1">
                    <mxGeometry relative="1" as="geometry"/>
                </mxCell>
                <mxCell id="MZ-Ur8Q-H968ZvkLKglN-25" value="NAT" style="sketch=0;outlineConnect=0;fontColor=#232F3E;gradientColor=none;fillColor=#4D27AA;strokeColor=none;dashed=0;verticalLabelPosition=bottom;verticalAlign=top;align=center;html=1;fontSize=12;fontStyle=0;aspect=fixed;pointerEvents=1;shape=mxgraph.aws4.nat_gateway;" parent="MZ-Ur8Q-H968ZvkLKglN-7" vertex="1">
                    <mxGeometry x="527.75" y="200" width="40" height="40" as="geometry"/>
                </mxCell>
                <mxCell id="MZ-Ur8Q-H968ZvkLKglN-62" value="Secret Manager / Hashicorp Vault" style="shape=image;verticalLabelPosition=bottom;labelBackgroundColor=default;verticalAlign=top;aspect=fixed;imageAspect=0;image=https://www.strongdm.com/hubfs/21126185/Technology%20Images/603c5ee711f53137719e78ff_603c21886a41f409b6aa1727_AWS_Secrets_Manager.png;" parent="MZ-Ur8Q-H968ZvkLKglN-7" vertex="1">
                    <mxGeometry x="306.96" y="560" width="61.68" height="60" as="geometry"/>
                </mxCell>
                <mxCell id="MZ-Ur8Q-H968ZvkLKglN-31" value="&lt;font size=&quot;1&quot;&gt;Bastion Host&lt;/font&gt;" style="points=[[0,0],[0.25,0],[0.5,0],[0.75,0],[1,0],[1,0.25],[1,0.5],[1,0.75],[1,1],[0.75,1],[0.5,1],[0.25,1],[0,1],[0,0.75],[0,0.5],[0,0.25]];outlineConnect=0;gradientColor=none;html=1;whiteSpace=wrap;fontSize=12;fontStyle=0;container=1;pointerEvents=0;collapsible=0;recursiveResize=0;shape=mxgraph.aws4.group;grIcon=mxgraph.aws4.group_ec2_instance_contents;strokeColor=#D86613;fillColor=none;verticalAlign=top;align=left;spacingLeft=30;fontColor=#D86613;dashed=0;" parent="MZ-Ur8Q-H968ZvkLKglN-7" vertex="1">
                    <mxGeometry x="212.5" y="210" width="119" height="40" as="geometry"/>
                </mxCell>
                <mxCell id="MZ-Ur8Q-H968ZvkLKglN-71" value="ElasticSearch" style="outlineConnect=0;dashed=0;verticalLabelPosition=bottom;verticalAlign=top;align=center;html=1;shape=mxgraph.aws3.elasticsearch_service;fillColor=#F58534;gradientColor=none;" parent="MZ-Ur8Q-H968ZvkLKglN-7" vertex="1">
                    <mxGeometry x="156" y="570" width="39" height="50" as="geometry"/>
                </mxCell>
                <mxCell id="MZ-Ur8Q-H968ZvkLKglN-73" style="edgeStyle=orthogonalEdgeStyle;rounded=0;comic=0;orthogonalLoop=1;jettySize=auto;html=1;strokeColor=default;startFill=1;endArrow=blockThin;endFill=1;" parent="MZ-Ur8Q-H968ZvkLKglN-7" source="MZ-Ur8Q-H968ZvkLKglN-14" target="MZ-Ur8Q-H968ZvkLKglN-62" edge="1">
                    <mxGeometry relative="1" as="geometry"/>
                </mxCell>
                <mxCell id="MZ-Ur8Q-H968ZvkLKglN-78" style="edgeStyle=orthogonalEdgeStyle;rounded=0;comic=0;orthogonalLoop=1;jettySize=auto;html=1;strokeColor=default;startFill=1;endArrow=blockThin;endFill=1;" parent="MZ-Ur8Q-H968ZvkLKglN-7" source="MZ-Ur8Q-H968ZvkLKglN-14" target="H-2jeyvp7KCKJ_6JpLj1-1" edge="1">
                    <mxGeometry relative="1" as="geometry">
                        <Array as="points">
                            <mxPoint x="338" y="430"/>
                            <mxPoint x="60" y="430"/>
                        </Array>
                    </mxGeometry>
                </mxCell>
                <mxCell id="MZ-Ur8Q-H968ZvkLKglN-79" value="Assume Role&lt;br style=&quot;border-color: var(--border-color);&quot;&gt;To retrive secrets from&lt;br style=&quot;border-color: var(--border-color);&quot;&gt;Secret manager" style="edgeLabel;html=1;align=center;verticalAlign=middle;resizable=0;points=[];" parent="MZ-Ur8Q-H968ZvkLKglN-78" vertex="1" connectable="0">
                    <mxGeometry x="0.6434" y="-2" relative="1" as="geometry">
                        <mxPoint as="offset"/>
                    </mxGeometry>
                </mxCell>
                <mxCell id="MZ-Ur8Q-H968ZvkLKglN-80" style="edgeStyle=orthogonalEdgeStyle;rounded=0;comic=0;orthogonalLoop=1;jettySize=auto;html=1;strokeColor=default;startFill=1;endArrow=blockThin;endFill=1;" parent="MZ-Ur8Q-H968ZvkLKglN-7" source="MZ-Ur8Q-H968ZvkLKglN-14" target="MZ-Ur8Q-H968ZvkLKglN-71" edge="1">
                    <mxGeometry relative="1" as="geometry">
                        <Array as="points">
                            <mxPoint x="176" y="470"/>
                        </Array>
                    </mxGeometry>
                </mxCell>
                <mxCell id="MZ-Ur8Q-H968ZvkLKglN-81" value="Logs" style="edgeLabel;html=1;align=center;verticalAlign=middle;resizable=0;points=[];" parent="MZ-Ur8Q-H968ZvkLKglN-80" vertex="1" connectable="0">
                    <mxGeometry x="-0.2481" y="-2" relative="1" as="geometry">
                        <mxPoint as="offset"/>
                    </mxGeometry>
                </mxCell>
                <mxCell id="H-2jeyvp7KCKJ_6JpLj1-1" value="IAM Role&lt;br&gt;Service Account" style="sketch=0;outlineConnect=0;fontColor=#232F3E;gradientColor=none;fillColor=#BF0816;strokeColor=none;dashed=0;verticalLabelPosition=bottom;verticalAlign=top;align=center;html=1;fontSize=12;fontStyle=0;aspect=fixed;pointerEvents=1;shape=mxgraph.aws4.role;" parent="MZ-Ur8Q-H968ZvkLKglN-7" vertex="1">
                    <mxGeometry x="21" y="280" width="78" height="44" as="geometry"/>
                </mxCell>
                <mxCell id="zd4MPqQiI4P0fvoQS1cF-11" style="edgeStyle=orthogonalEdgeStyle;shape=link;rounded=0;orthogonalLoop=1;jettySize=auto;html=1;entryX=0.25;entryY=0;entryDx=0;entryDy=0;endArrow=open;sourcePerimeterSpacing=8;targetPerimeterSpacing=8;" parent="MZ-Ur8Q-H968ZvkLKglN-7" source="zd4MPqQiI4P0fvoQS1cF-1" target="MZ-Ur8Q-H968ZvkLKglN-59" edge="1">
                    <mxGeometry relative="1" as="geometry"/>
                </mxCell>
                <mxCell id="zd4MPqQiI4P0fvoQS1cF-1" value="ALB" style="outlineConnect=0;dashed=0;verticalLabelPosition=bottom;verticalAlign=top;align=center;html=1;shape=mxgraph.aws3.application_load_balancer;fillColor=#F58534;gradientColor=none;" parent="MZ-Ur8Q-H968ZvkLKglN-7" vertex="1">
                    <mxGeometry x="464" y="194" width="40" height="42" as="geometry"/>
                </mxCell>
                <mxCell id="MZ-Ur8Q-H968ZvkLKglN-69" style="edgeStyle=orthogonalEdgeStyle;rounded=1;comic=0;orthogonalLoop=1;jettySize=auto;html=1;strokeColor=default;startFill=1;endArrow=blockThin;endFill=1;shape=link;" parent="1" source="MZ-Ur8Q-H968ZvkLKglN-53" target="MZ-Ur8Q-H968ZvkLKglN-57" edge="1">
                    <mxGeometry relative="1" as="geometry"/>
                </mxCell>
                <mxCell id="MZ-Ur8Q-H968ZvkLKglN-53" value="" style="shape=image;verticalLabelPosition=bottom;labelBackgroundColor=default;verticalAlign=top;aspect=fixed;imageAspect=0;image=https://boxboat.com/2018/06/12/kubernetes-ingress-lets-encrypt-certificates/featured.png;imageBorder=default;" parent="1" vertex="1">
                    <mxGeometry x="410" y="28" width="180" height="72" as="geometry"/>
                </mxCell>
                <mxCell id="MZ-Ur8Q-H968ZvkLKglN-1" style="edgeStyle=orthogonalEdgeStyle;rounded=0;orthogonalLoop=1;jettySize=auto;html=1;" parent="1" source="MZ-Ur8Q-H968ZvkLKglN-2" target="MZ-Ur8Q-H968ZvkLKglN-55" edge="1">
                    <mxGeometry relative="1" as="geometry">
                        <mxPoint x="442" y="150" as="targetPoint"/>
                        <Array as="points">
                            <mxPoint x="200" y="59"/>
                        </Array>
                    </mxGeometry>
                </mxCell>
                <mxCell id="MZ-Ur8Q-H968ZvkLKglN-64" value="Assume Role&lt;br&gt;To retrive secrets from&lt;br&gt;Secret manager" style="edgeLabel;html=1;align=center;verticalAlign=middle;resizable=0;points=[];" parent="MZ-Ur8Q-H968ZvkLKglN-1" vertex="1" connectable="0">
                    <mxGeometry x="-0.1847" y="-1" relative="1" as="geometry">
                        <mxPoint as="offset"/>
                    </mxGeometry>
                </mxCell>
                <mxCell id="MZ-Ur8Q-H968ZvkLKglN-63" style="edgeStyle=orthogonalEdgeStyle;rounded=1;comic=0;orthogonalLoop=1;jettySize=auto;html=1;strokeColor=default;startFill=1;endArrow=blockThin;endFill=1;" parent="1" source="MZ-Ur8Q-H968ZvkLKglN-2" target="MZ-Ur8Q-H968ZvkLKglN-31" edge="1">
                    <mxGeometry relative="1" as="geometry">
                        <Array as="points">
                            <mxPoint x="320" y="410"/>
                        </Array>
                    </mxGeometry>
                </mxCell>
                <mxCell id="zd4MPqQiI4P0fvoQS1cF-8" style="edgeStyle=orthogonalEdgeStyle;shape=link;rounded=0;orthogonalLoop=1;jettySize=auto;html=1;endArrow=open;sourcePerimeterSpacing=8;targetPerimeterSpacing=8;exitX=0.16;exitY=0.55;exitDx=0;exitDy=0;exitPerimeter=0;entryX=0.5;entryY=0;entryDx=0;entryDy=0;entryPerimeter=0;" parent="1" source="MZ-Ur8Q-H968ZvkLKglN-68" target="zd4MPqQiI4P0fvoQS1cF-1" edge="1">
                    <mxGeometry relative="1" as="geometry">
                        <Array as="points">
                            <mxPoint x="709" y="58"/>
                            <mxPoint x="709" y="60"/>
                            <mxPoint x="623" y="60"/>
                        </Array>
                    </mxGeometry>
                </mxCell>
                <mxCell id="MZ-Ur8Q-H968ZvkLKglN-68" value="" style="ellipse;shape=cloud;whiteSpace=wrap;html=1;" parent="1" vertex="1">
                    <mxGeometry x="643" y="14" width="120" height="80" as="geometry"/>
                </mxCell>
            </root>
        </mxGraphModel>
    </diagram>
</mxfile>